<svg width="120" height="26" viewBox="0 0 120 26" fill="none" xmlns="http://www.w3.org/2000/svg">
<path d="M18.6033 2.61774V3.13702C18.2225 3.27549 17.8158 3.5784 17.3831 4.04574C16.9676 4.51309 16.5782 5.24007 16.2147 6.22669L10.7364 21.0519C10.5979 21.0346 10.4508 21.026 10.295 21.026C10.1392 21.026 9.98342 21.026 9.82764 21.026C9.68916 21.026 9.54204 21.026 9.38626 21.026C9.23047 21.026 9.08335 21.0346 8.94487 21.0519L2.32415 4.79869C2.08182 4.17556 1.81353 3.75149 1.51927 3.52647C1.22502 3.28414 0.948073 3.15433 0.688436 3.13702V2.61774C1.20771 2.63505 1.81353 2.65236 2.50589 2.66967C3.21556 2.68698 3.92524 2.69563 4.63491 2.69563C5.43113 2.69563 6.17542 2.68698 6.86778 2.66967C7.57746 2.65236 8.14866 2.63505 8.58138 2.61774V3.13702C8.02749 3.15433 7.59476 3.22356 7.2832 3.34473C6.97164 3.44858 6.79855 3.65629 6.76393 3.96785C6.72931 4.26211 6.83316 4.71214 7.07549 5.31796L11.8009 17.3391L11.2556 17.9882L14.8386 8.32974C15.306 7.03156 15.5483 6.01033 15.5656 5.26604C15.5829 4.52174 15.4012 3.98516 15.0204 3.65629C14.6396 3.32742 14.0943 3.15433 13.3847 3.13702V2.61774C13.9732 2.63505 14.5271 2.65236 15.0463 2.66967C15.5656 2.68698 16.0935 2.69563 16.6301 2.69563C17.0109 2.69563 17.3657 2.68698 17.6946 2.66967C18.0408 2.65236 18.3437 2.63505 18.6033 2.61774ZM30.0395 7.5768V8.09607C29.7106 8.18262 29.3991 8.39033 29.1048 8.7192C28.8106 9.03076 28.525 9.56734 28.248 10.3289L24.5872 20.6105L23.6265 22.428L17.9664 9.576C17.6722 8.90094 17.3779 8.49418 17.0837 8.35571C16.8067 8.19993 16.5644 8.12203 16.3567 8.12203V7.5768C16.9279 7.62873 17.5164 7.672 18.1222 7.70662C18.7453 7.72393 19.3425 7.73258 19.9137 7.73258C20.6234 7.73258 21.2725 7.71527 21.861 7.68065C22.4495 7.64603 23.0034 7.61142 23.5226 7.5768V8.12203C23.1765 8.12203 22.8476 8.148 22.536 8.19993C22.2418 8.23454 22.0341 8.35571 21.9129 8.56342C21.809 8.75382 21.861 9.09134 22.0687 9.576L25.3401 17.4689L25.1064 17.6247L27.0277 12.2503C27.3566 11.3156 27.4951 10.554 27.4432 9.96545C27.3912 9.35964 27.2008 8.9096 26.872 8.61534C26.5431 8.30378 26.093 8.13069 25.5218 8.09607V7.5768C25.7988 7.59411 26.0844 7.61142 26.3786 7.62873C26.6729 7.62873 26.9672 7.63738 27.2614 7.65469C27.5557 7.65469 27.8153 7.65469 28.0403 7.65469C28.3865 7.65469 28.75 7.64603 29.1308 7.62873C29.5116 7.61142 29.8145 7.59411 30.0395 7.5768ZM24.5872 20.6105L23.6005 23.3887C23.4274 23.8214 23.2457 24.1849 23.0553 24.4791C22.8822 24.7907 22.6832 25.0417 22.4581 25.2321C22.2158 25.4398 21.9042 25.5956 21.5234 25.6994C21.1426 25.8206 20.7013 25.8812 20.1993 25.8812C19.7839 25.8812 19.3512 25.8119 18.9011 25.6735C18.4684 25.535 18.1049 25.31 17.8106 24.9984C17.5164 24.6868 17.3693 24.2887 17.3693 23.8041C17.3693 23.2675 17.5597 22.8348 17.9405 22.5059C18.3213 22.1943 18.8232 22.0385 19.4464 22.0385C20.0176 22.0385 20.4849 22.177 20.8484 22.454C21.2119 22.7309 21.3936 23.1377 21.3936 23.6743C21.3936 24.0204 21.2811 24.3493 21.0561 24.6609C20.8484 24.9724 20.5282 25.2061 20.0954 25.3619C20.182 25.3792 20.2858 25.3879 20.407 25.3879C20.5282 25.3879 20.6234 25.3879 20.6926 25.3879C21.2119 25.3879 21.6706 25.2234 22.0687 24.8945C22.4668 24.5657 22.7957 24.0464 23.0553 23.3367L23.964 20.6625L24.5872 20.6105ZM34.0856 21.1817C33.3067 21.1817 32.6576 21.0346 32.1383 20.7404C31.619 20.4461 31.2382 20.0567 30.9959 19.572C30.7536 19.07 30.6324 18.5248 30.6324 17.9363C30.6324 17.192 30.7969 16.5862 31.1257 16.1188C31.4719 15.6515 31.9133 15.2707 32.4499 14.9764C32.9865 14.6822 33.549 14.4399 34.1375 14.2495C34.7433 14.0591 35.3145 13.8773 35.8511 13.7042C36.405 13.5138 36.8464 13.2975 37.1753 13.0551C37.5214 12.7955 37.6945 12.4666 37.6945 12.0685V10.0433C37.6945 9.59331 37.6166 9.1952 37.4609 8.84902C37.3224 8.48553 37.0974 8.20858 36.7858 8.01818C36.4916 7.82778 36.1021 7.73258 35.6174 7.73258C35.2713 7.73258 34.9251 7.78451 34.5789 7.88836C34.2327 7.97491 33.9471 8.13069 33.7221 8.35571C34.2067 8.5288 34.5789 8.79709 34.8385 9.16058C35.1155 9.50676 35.254 9.90487 35.254 10.3549C35.254 10.9434 35.0462 11.4108 34.6308 11.7569C34.2327 12.1031 33.7567 12.2762 33.2028 12.2762C32.5797 12.2762 32.1037 12.0858 31.7748 11.705C31.4633 11.3069 31.3075 10.8309 31.3075 10.277C31.3075 9.77505 31.4286 9.35963 31.671 9.03076C31.9306 8.70189 32.2854 8.39033 32.7355 8.09607C33.2201 7.81913 33.8 7.60276 34.475 7.44698C35.1674 7.2912 35.9117 7.21331 36.7079 7.21331C37.5041 7.21331 38.2225 7.29985 38.8629 7.47294C39.5033 7.62873 40.0399 7.92298 40.4726 8.35571C40.8708 8.75382 41.1304 9.24713 41.2516 9.83564C41.3727 10.4068 41.4333 11.1338 41.4333 12.0166V19.0787C41.4333 19.5114 41.4766 19.8143 41.5631 19.9874C41.6497 20.1432 41.7968 20.2211 42.0045 20.2211C42.1603 20.2211 42.3074 20.1778 42.4459 20.0913C42.6017 20.0047 42.7661 19.9009 42.9392 19.7797L43.1988 20.2211C42.8353 20.5327 42.4113 20.775 41.9266 20.9481C41.4593 21.1039 40.9313 21.1817 40.3428 21.1817C39.7024 21.1817 39.1918 21.0952 38.811 20.9221C38.4302 20.7317 38.1532 20.4807 37.9801 20.1692C37.8243 19.8576 37.7465 19.4941 37.7465 19.0787C37.331 19.7364 36.8291 20.2557 36.2406 20.6365C35.6521 21 34.9337 21.1817 34.0856 21.1817ZM35.929 19.5201C36.2752 19.5201 36.5868 19.4422 36.8637 19.2864C37.158 19.1133 37.4349 18.8364 37.6945 18.4556V13.133C37.5388 13.3927 37.3224 13.6263 37.0454 13.834C36.7685 14.0417 36.4742 14.2581 36.1627 14.4831C35.8511 14.6908 35.5482 14.9245 35.254 15.1841C34.977 15.4438 34.752 15.764 34.5789 16.1448C34.4058 16.5256 34.3193 16.9843 34.3193 17.5209C34.3193 18.1959 34.4664 18.6979 34.7606 19.0268C35.0549 19.3556 35.4444 19.5201 35.929 19.5201ZM56.2277 7.5768V8.09607C55.8988 8.18262 55.5873 8.39033 55.293 8.7192C54.9988 9.03076 54.7132 9.56734 54.4362 10.3289L50.6455 21.0519C50.3686 21.0346 50.083 21.026 49.7887 21.026C49.5118 21.026 49.2348 21.0346 48.9579 21.0519L44.3364 9.576C44.0594 8.90094 43.7825 8.49418 43.5055 8.35571C43.2459 8.19993 43.0209 8.12203 42.8305 8.12203V7.5768C43.3844 7.61142 43.9556 7.64603 44.5441 7.68065C45.1499 7.69796 45.8076 7.70662 46.5173 7.70662C47.0539 7.70662 47.6164 7.69796 48.2049 7.68065C48.8108 7.64603 49.3733 7.61142 49.8926 7.5768V8.12203C49.5291 8.12203 49.2002 8.13934 48.906 8.17396C48.629 8.20858 48.4386 8.32109 48.3348 8.51149C48.2309 8.70189 48.2482 9.03942 48.3867 9.52407L51.4244 17.5728L51.1648 17.9363L53.2159 12.2503C53.5448 11.3156 53.6833 10.554 53.6313 9.96545C53.5794 9.35964 53.389 8.9096 53.0601 8.61534C52.7313 8.30378 52.2899 8.13069 51.736 8.09607V7.5768C51.9956 7.59411 52.2726 7.61142 52.5668 7.62873C52.8784 7.62873 53.1726 7.63738 53.4496 7.65469C53.7438 7.65469 54.0035 7.65469 54.2285 7.65469C54.5747 7.65469 54.9382 7.64603 55.319 7.62873C55.6998 7.61142 56.0027 7.59411 56.2277 7.5768ZM60.1506 21.1817C59.3717 21.1817 58.7226 21.0346 58.2034 20.7404C57.6841 20.4461 57.3033 20.0567 57.061 19.572C56.8186 19.07 56.6975 18.5248 56.6975 17.9363C56.6975 17.192 56.8619 16.5862 57.1908 16.1188C57.537 15.6515 57.9784 15.2707 58.5149 14.9764C59.0515 14.6822 59.6141 14.4399 60.2026 14.2495C60.8084 14.0591 61.3796 13.8773 61.9162 13.7042C62.4701 13.5138 62.9114 13.2975 63.2403 13.0551C63.5865 12.7955 63.7596 12.4666 63.7596 12.0685V10.0433C63.7596 9.59331 63.6817 9.1952 63.5259 8.84902C63.3874 8.48553 63.1624 8.20858 62.8509 8.01818C62.5566 7.82778 62.1672 7.73258 61.6825 7.73258C61.3363 7.73258 60.9901 7.78451 60.644 7.88836C60.2978 7.97491 60.0122 8.13069 59.7872 8.35571C60.2718 8.5288 60.644 8.79709 60.9036 9.16058C61.1805 9.50676 61.319 9.90487 61.319 10.3549C61.319 10.9434 61.1113 11.4108 60.6959 11.7569C60.2978 12.1031 59.8218 12.2762 59.2679 12.2762C58.6448 12.2762 58.1688 12.0858 57.8399 11.705C57.5283 11.3069 57.3725 10.8309 57.3725 10.277C57.3725 9.77505 57.4937 9.35963 57.736 9.03076C57.9957 8.70189 58.3505 8.39033 58.8005 8.09607C59.2852 7.81913 59.865 7.60276 60.5401 7.44698C61.2325 7.2912 61.9768 7.21331 62.773 7.21331C63.5692 7.21331 64.2875 7.29985 64.928 7.47294C65.5684 7.62873 66.105 7.92298 66.5377 8.35571C66.9358 8.75382 67.1954 9.24713 67.3166 9.83564C67.4378 10.4068 67.4984 11.1338 67.4984 12.0166V19.0787C67.4984 19.5114 67.5416 19.8143 67.6282 19.9874C67.7147 20.1432 67.8618 20.2211 68.0696 20.2211C68.2253 20.2211 68.3725 20.1778 68.5109 20.0913C68.6667 20.0047 68.8312 19.9009 69.0042 19.7797L69.2639 20.2211C68.9004 20.5327 68.4763 20.775 67.9917 20.9481C67.5243 21.1039 66.9964 21.1817 66.4079 21.1817C65.7674 21.1817 65.2568 21.0952 64.876 20.9221C64.4952 20.7317 64.2183 20.4807 64.0452 20.1692C63.8894 19.8576 63.8115 19.4941 63.8115 19.0787C63.3961 19.7364 62.8941 20.2557 62.3056 20.6365C61.7171 21 60.9988 21.1817 60.1506 21.1817ZM61.9941 19.5201C62.3402 19.5201 62.6518 19.4422 62.9288 19.2864C63.223 19.1133 63.5 18.8364 63.7596 18.4556V13.133C63.6038 13.3927 63.3874 13.6263 63.1105 13.834C62.8336 14.0417 62.5393 14.2581 62.2277 14.4831C61.9162 14.6908 61.6133 14.9245 61.319 15.1841C61.0421 15.4438 60.817 15.764 60.644 16.1448C60.4709 16.5256 60.3843 16.9843 60.3843 17.5209C60.3843 18.1959 60.5314 18.6979 60.8257 19.0268C61.12 19.3556 61.5094 19.5201 61.9941 19.5201ZM75.1467 7.21331C75.8737 7.21331 76.5054 7.30851 77.042 7.49891C77.5959 7.672 77.994 7.84509 78.2363 8.01818C78.8249 8.41629 79.1883 8.15665 79.3268 7.23927H79.8721C79.8374 7.72393 79.8115 8.32109 79.7942 9.03076C79.7769 9.72313 79.7682 10.6492 79.7682 11.8089H79.223C79.1364 11.1684 78.972 10.5367 78.7297 9.91353C78.4873 9.2904 78.1325 8.77978 77.6651 8.38167C77.2151 7.98356 76.6266 7.78451 75.8996 7.78451C75.3977 7.78451 74.9736 7.93164 74.6274 8.22589C74.2812 8.50284 74.1081 8.9096 74.1081 9.44618C74.1081 9.96545 74.2639 10.4241 74.5755 10.8223C74.887 11.2031 75.2851 11.5752 75.7698 11.9387C76.2718 12.2849 76.791 12.657 77.3276 13.0551C77.8988 13.4879 78.4181 13.9206 78.8854 14.3533C79.3528 14.7687 79.7249 15.2274 80.0019 15.7294C80.2788 16.2313 80.4173 16.8285 80.4173 17.5209C80.4173 18.2998 80.1923 18.9835 79.7422 19.572C79.2922 20.1432 78.695 20.5846 77.9507 20.8961C77.2238 21.2077 76.4102 21.3635 75.5102 21.3635C74.9909 21.3635 74.5235 21.3116 74.1081 21.2077C73.71 21.1039 73.3638 20.974 73.0696 20.8183C72.8446 20.7144 72.6282 20.6192 72.4205 20.5327C72.2301 20.4288 72.0483 20.3423 71.8753 20.273C71.7022 20.2211 71.5464 20.2817 71.4079 20.4548C71.2867 20.6279 71.1915 20.8702 71.1223 21.1817H70.5771C70.6117 20.6279 70.6377 19.9528 70.655 19.1566C70.6723 18.3604 70.6809 17.3045 70.6809 15.989H71.2262C71.33 16.9237 71.5204 17.7545 71.7974 18.4815C72.0743 19.1912 72.4465 19.7537 72.9138 20.1692C73.3985 20.5673 74.0043 20.7663 74.7313 20.7663C75.0255 20.7663 75.3111 20.7057 75.5881 20.5846C75.865 20.4634 76.09 20.2644 76.2631 19.9874C76.4535 19.7105 76.5487 19.3556 76.5487 18.9229C76.5487 18.1613 76.2977 17.5295 75.7958 17.0276C75.3111 16.5256 74.688 15.9804 73.9264 15.3919C73.3725 14.9418 72.8446 14.5004 72.3426 14.0677C71.8579 13.6177 71.4598 13.133 71.1483 12.6137C70.8367 12.0772 70.6809 11.4713 70.6809 10.7963C70.6809 10.0174 70.8886 9.35963 71.3041 8.82305C71.7195 8.28647 72.2647 7.88836 72.9398 7.62873C73.6321 7.35178 74.3678 7.21331 75.1467 7.21331ZM87.2695 3.31876V7.5768H90.3332V8.09607H87.2695V18.5854C87.2695 19.1047 87.3647 19.4768 87.5551 19.7018C87.7455 19.9095 88.0311 20.0134 88.4119 20.0134C88.7234 20.0134 89.035 19.9009 89.3466 19.6759C89.6581 19.4335 89.9351 19.0268 90.1774 18.4556L90.6188 18.6892C90.3418 19.4681 89.9178 20.1086 89.3466 20.6105C88.7927 21.1125 88.0311 21.3635 87.0618 21.3635C86.4906 21.3635 85.9886 21.2856 85.5559 21.1298C85.1231 20.9913 84.7596 20.775 84.4654 20.4807C84.0846 20.0999 83.8336 19.6326 83.7124 19.0787C83.5913 18.5075 83.5307 17.7719 83.5307 16.8718V8.09607H81.3498V7.5768H83.5307V4.1496C84.2577 4.1496 84.9241 4.08902 85.5299 3.96785C86.153 3.82938 86.7329 3.61302 87.2695 3.31876ZM96.3973 0.696433V9.62793C96.83 8.72785 97.4099 8.10473 98.1369 7.75854C98.8812 7.39505 99.712 7.21331 100.629 7.21331C101.374 7.21331 101.971 7.30851 102.421 7.49891C102.871 7.672 103.226 7.91433 103.485 8.22589C103.78 8.55476 103.987 8.97883 104.109 9.49811C104.247 10.0174 104.316 10.7184 104.316 11.6012V18.5854C104.316 19.3124 104.437 19.8057 104.68 20.0653C104.939 20.3249 105.372 20.4548 105.978 20.4548V21C105.649 20.9827 105.147 20.9654 104.472 20.9481C103.814 20.9135 103.174 20.8961 102.551 20.8961C101.876 20.8961 101.218 20.9135 100.577 20.9481C99.9543 20.9654 99.487 20.9827 99.1754 21V20.4548C99.6947 20.4548 100.058 20.3249 100.266 20.0653C100.474 19.8057 100.577 19.3124 100.577 18.5854V10.5107C100.577 10.078 100.534 9.70582 100.448 9.39425C100.361 9.06538 100.197 8.8144 99.9543 8.64131C99.7293 8.45091 99.4004 8.35571 98.9677 8.35571C98.5004 8.35571 98.0676 8.48553 97.6695 8.74516C97.2887 8.98749 96.9772 9.33367 96.7348 9.78371C96.5098 10.2337 96.3973 10.753 96.3973 11.3415V18.5854C96.3973 19.3124 96.5012 19.8057 96.7089 20.0653C96.9166 20.3249 97.2801 20.4548 97.7993 20.4548V21C97.4878 20.9827 97.0291 20.9654 96.4233 20.9481C95.8174 20.9135 95.203 20.8961 94.5798 20.8961C93.9048 20.8961 93.2211 20.9135 92.5287 20.9481C91.8537 20.9654 91.343 20.9827 90.9969 21V20.4548C91.6027 20.4548 92.0268 20.3249 92.2691 20.0653C92.5287 19.8057 92.6585 19.3124 92.6585 18.5854V3.81207C92.6585 3.03316 92.5374 2.46196 92.295 2.09847C92.07 1.71767 91.6373 1.52727 90.9969 1.52727V0.982034C91.5508 1.03396 92.0873 1.05993 92.6066 1.05993C93.3163 1.05993 93.9913 1.03396 94.6318 0.982034C95.2722 0.912798 95.8607 0.817597 96.3973 0.696433ZM110.506 21.1817C109.727 21.1817 109.078 21.0346 108.559 20.7404C108.039 20.4461 107.659 20.0567 107.416 19.572C107.174 19.07 107.053 18.5248 107.053 17.9363C107.053 17.192 107.217 16.5862 107.546 16.1188C107.892 15.6515 108.334 15.2707 108.87 14.9764C109.407 14.6822 109.969 14.4399 110.558 14.2495C111.164 14.0591 111.735 13.8773 112.271 13.7042C112.825 13.5138 113.267 13.2975 113.596 13.0551C113.942 12.7955 114.115 12.4666 114.115 12.0685V10.0433C114.115 9.59331 114.037 9.1952 113.881 8.84902C113.743 8.48553 113.518 8.20858 113.206 8.01818C112.912 7.82778 112.522 7.73258 112.038 7.73258C111.692 7.73258 111.345 7.78451 110.999 7.88836C110.653 7.97491 110.367 8.13069 110.142 8.35571C110.627 8.5288 110.999 8.79709 111.259 9.16058C111.536 9.50676 111.674 9.90487 111.674 10.3549C111.674 10.9434 111.467 11.4108 111.051 11.7569C110.653 12.1031 110.177 12.2762 109.623 12.2762C109 12.2762 108.524 12.0858 108.195 11.705C107.884 11.3069 107.728 10.8309 107.728 10.277C107.728 9.77505 107.849 9.35963 108.091 9.03076C108.351 8.70189 108.706 8.39033 109.156 8.09607C109.64 7.81913 110.22 7.60276 110.895 7.44698C111.588 7.2912 112.332 7.21331 113.128 7.21331C113.924 7.21331 114.643 7.29985 115.283 7.47294C115.924 7.62873 116.46 7.92298 116.893 8.35571C117.291 8.75382 117.551 9.24713 117.672 9.83564C117.793 10.4068 117.854 11.1338 117.854 12.0166V19.0787C117.854 19.5114 117.897 19.8143 117.983 19.9874C118.07 20.1432 118.217 20.2211 118.425 20.2211C118.581 20.2211 118.728 20.1778 118.866 20.0913C119.022 20.0047 119.186 19.9009 119.36 19.7797L119.619 20.2211C119.256 20.5327 118.832 20.775 118.347 20.9481C117.88 21.1039 117.352 21.1817 116.763 21.1817C116.123 21.1817 115.612 21.0952 115.231 20.9221C114.85 20.7317 114.574 20.4807 114.4 20.1692C114.245 19.8576 114.167 19.4941 114.167 19.0787C113.751 19.7364 113.249 20.2557 112.661 20.6365C112.072 21 111.354 21.1817 110.506 21.1817ZM112.349 19.5201C112.696 19.5201 113.007 19.4422 113.284 19.2864C113.578 19.1133 113.855 18.8364 114.115 18.4556V13.133C113.959 13.3927 113.743 13.6263 113.466 13.834C113.189 14.0417 112.895 14.2581 112.583 14.4831C112.271 14.6908 111.969 14.9245 111.674 15.1841C111.397 15.4438 111.172 15.764 110.999 16.1448C110.826 16.5256 110.74 16.9843 110.74 17.5209C110.74 18.1959 110.887 18.6979 111.181 19.0268C111.475 19.3556 111.865 19.5201 112.349 19.5201Z" fill="#FFFFFE"/>
</svg>
